<svg role="img" xmlns="http://www.w3.org/2000/svg" version="1.1" viewBox="26.89 27.1 139.42 45.37"><title>Georgia Department of Community Affairs</title>   <defs>     <style>       .cls-1 {         fill: #1a3a4d;       }        .cls-1, .cls-2, .cls-3, .cls-4, .cls-5 {         stroke-width: 0px;       }        .cls-2 {         fill: #b8e1f0;       }        .cls-3 {         fill: #8dc63f;       }        .cls-4 {         fill: #d5e04d;       }        .cls-5 {         fill: #ca4527;       }     </style>   </defs>   <path class="cls-4" d="M129.86,72.46h-31.2c-.62,0-1.13-.5-1.13-1.12v-1.62c0-.62.51-1.12,1.13-1.12h31.2c.62,0,1.13.5,1.13,1.12v1.62c0,.62-.51,1.12-1.13,1.12Z"></path>   <rect class="cls-5" x="132.85" y="68.6" width="33.46" height="3.87" rx="1.12" ry="1.12"></rect>   <path class="cls-2" d="M59.22,72.46h-31.2c-.62,0-1.13-.5-1.13-1.12v-1.62c0-.62.51-1.12,1.13-1.12h31.2c.62,0,1.13.5,1.13,1.12v1.62c0,.62-.51,1.12-1.13,1.12Z"></path>   <path class="cls-3" d="M94.54,72.47h-31.2c-.62,0-1.13-.5-1.13-1.12v-1.64c0-.62.51-1.12,1.13-1.12h31.2c.62,0,1.13.5,1.13,1.12v1.64c0,.62-.51,1.12-1.13,1.12Z"></path>   <path class="cls-1" d="M160.07,61.95h-1.48c-.09,0-.17-.07-.17-.17v-9.91c0-.43-.24-.82-.62-1.03l-5.09-2.71v-3.89c0-.37-.18-.72-.48-.94l-3.15-2.28c-.41-.29-.95-.29-1.36,0l-3.16,2.28c-.3.22-.48.57-.48.94l-.03,3.94-5.06,2.66c-.38.2-.62.59-.62,1.03v6.07c0,.09-.07.17-.17.17h-.68s-.01,0-.02,0h-.32c-.09,0-.17-.1-.17-.22v-10.44c0-.73-.48-1.19-1.26-1.19h-17.62c-.63,0-1.14.51-1.14,1.14v5.32c0,.16-.11.29-.24.29h-1c-.08,0-.15-.09-.15-.2v-9.99c0-.36-.13-.7-.37-.95l-5.35-5.71c-.48-.51-1.32-.51-1.8,0l-5.35,5.75c-.24.25-.37.59-.37.94v5.18c0,.12-.08.21-.17.21h-1.04c-.09,0-.16-.09-.16-.21v-19.46c0-.81-.63-1.47-1.41-1.47h-10.45c-.74,0-1.34.62-1.34,1.39v21.65c0,.11-.07.21-.15.23h-1.06c-.09,0-.16-.09-.16-.21v-6.06c0-.72-.57-1.31-1.26-1.31h-.82s-.09-.04-.09-.08c0-2.52-1.51-6.07-4.83-6.07s-4.82,3.55-4.83,6.07c0,.04-.03.08-.07.08h-.78c-.73,0-1.32.61-1.32,1.37v10.2c0,.14-.1.27-.21.27h-1.02c-.08,0-.15-.09-.15-.19v-3.99c0-.44-.22-.86-.54-1.05l-5.79-4.61c-.41-.26-.94-.26-1.39.04l-5.7,4.55c-.36.23-.58.63-.58,1.07v6.3c0,.14-.09.25-.19.27-.01,0-.02,0-.03,0h-.88c-.12,0-.22-.1-.22-.22v-7.85c0-.27-.08-.53-.24-.75l-3.48-4.81c-.16-.23-.39-.39-.65-.49l-5.08-1.79c-.31-.11-.65-.11-.96,0l-5.02,1.79c-.26.09-.49.26-.66.49l-3.56,4.84c-.15.2-.22.43-.22.68v11.77c0,.12-.1.22-.22.22h-1.18c-.3,0-.55.25-.55.55s.25.55.55.55h1.18c.73,0,1.33-.59,1.33-1.33v-11.79s3.57-4.84,3.57-4.84c.03-.05.08-.08.14-.1l5.02-1.79c.07-.03.15-.03.23,0l5.08,1.79c.05.02.09.05.12.09l3.48,4.81s.03.07.03.11v7.85c0,.73.59,1.33,1.33,1.33h.58s.02,0,.04,0h.25c.73,0,1.33-.62,1.33-1.38v-6.3c0-.06.03-.12.12-.19l5.7-4.55c.05-.03.12-.03.12-.03l5.79,4.61s.08.09.08.16v3.99c0,.71.56,1.29,1.24,1.29h1.02c.72,0,1.3-.61,1.3-1.36v-10.2c0-.15.1-.28.23-.28h.78c.64,0,1.16-.52,1.16-1.16,0-1.63.93-4.99,3.74-4.99s3.74,3.35,3.74,4.98c0,.65.53,1.17,1.18,1.17h.82c.09,0,.17.1.17.22v6.06c0,.72.56,1.3,1.25,1.3h1.03c.7,0,1.28-.59,1.28-1.32v-21.65c0-.16.11-.3.25-.3h10.45c.18,0,.32.17.32.38v19.46c0,.72.56,1.3,1.25,1.3h1.04c.69,0,1.26-.59,1.26-1.31v-5.18c0-.07.03-.15.08-.2l5.35-5.75c.07-.08.13-.08.2,0l5.35,5.71s.07.12.07.2v9.99c0,.71.56,1.29,1.25,1.29h1c.74,0,1.33-.62,1.33-1.38v-5.32s.02-.05.05-.05h17.62c.11,0,.16.02.15,0,0,0,.01.02.01.09v10.44c0,.72.57,1.31,1.27,1.31h.31s.02,0,.03,0h.68c.7,0,1.27-.57,1.27-1.27l.03-6.12,5.06-2.66c.38-.2.62-.59.62-1.03l.02-3.94,3.22-2.28,3.18,2.33v3.89c0,.43.24.83.62,1.03l5.09,2.71v9.91c0,.7.57,1.27,1.27,1.27h1.48c.3,0,.55-.25.55-.55s-.25-.55-.55-.55Z"></path> </svg>