<svg width="24" height="24" viewBox="0 0 26 26" xmlns="http://www.w3.org/2000/svg" role="img" aria-hidden="true"><path fill="#fff" fill-rule="evenodd" clip-rule="evenodd" d="M21.72 15.343c0-1.816-.255-3.142-.763-3.978-.69-1.053-1.872-1.58-3.543-1.58-.835 0-1.58.2-2.234.6-.545.326-.945.744-1.199 1.253h-.054v-1.58h-3.488v11.66h3.597v-5.775c0-.909.127-1.599.381-2.071.363-.618.963-.927 1.799-.927.835 0 1.38.345 1.634 1.036.182.436.273 1.126.273 2.07v5.668h3.596v-6.376ZM8.476 6.38c0-.563-.209-1.053-.626-1.471a2.044 2.044 0 0 0-1.499-.627c-.581 0-1.071.209-1.471.627-.4.417-.6.908-.6 1.471 0 .563.2 1.053.6 1.471.4.418.89.627 1.471.627.581 0 1.081-.209 1.499-.627.417-.418.626-.908.626-1.47Zm-.272 3.678H4.554V21.72h3.651V10.057Zm15.2 15.15H2.595a1.802 1.802 0 0 1-1.801-1.802V2.595C.794 1.6 1.6.793 2.596.793h20.81c.994 0 1.801.807 1.801 1.802v20.81c0 .995-.807 1.801-1.802 1.801Z"></path></svg>