<svg role="img" aria-hidden="true" viewBox="0 0 29 19" xmlns="http://www.w3.org/2000/svg"><path fill="#fff" d="M.617 3.592A2.02 2.02 0 0 1 0 2.114 2.03 2.03 0 0 1 .617.617 2.03 2.03 0 0 1 2.114 0a2.02 2.02 0 0 1 1.478.617c.405.392.628.934.618 1.497a2.02 2.02 0 0 1-.618 1.478 2.02 2.02 0 0 1-1.478.618 2.03 2.03 0 0 1-1.497-.618Zm0 7.016a2.105 2.105 0 0 1 0-2.974 2.03 2.03 0 0 1 1.497-.618 2.02 2.02 0 0 1 1.478.618c.821.821.821 2.153 0 2.974a2.02 2.02 0 0 1-1.478.618 2.03 2.03 0 0 1-1.497-.618Zm0 7.017a2.105 2.105 0 0 1 0-2.975 2.03 2.03 0 0 1 1.497-.618 2.02 2.02 0 0 1 1.478.618c.821.821.821 2.153 0 2.975a2.02 2.02 0 0 1-1.478.617 2.03 2.03 0 0 1-1.497-.617ZM1.553 1.6a.73.73 0 0 0-.206.514c0 .183.075.359.206.487.146.15.353.225.561.205a.645.645 0 0 0 .487-.205.645.645 0 0 0 .205-.487.692.692 0 0 0-.205-.514.683.683 0 0 0-.487-.206.73.73 0 0 0-.514.206h-.047Zm0 7.016a.73.73 0 0 0-.206.514c0 .184.075.359.206.487a.692.692 0 0 0 .514.206.645.645 0 0 0 .487-.206.645.645 0 0 0 .252-.487.692.692 0 0 0-.205-.514.683.683 0 0 0-.487-.197.73.73 0 0 0-.514.197h-.047Zm0 7.016a.73.73 0 0 0-.206.514c0 .184.075.359.206.487a.692.692 0 0 0 .514.206.645.645 0 0 0 .487-.206.645.645 0 0 0 .252-.487.692.692 0 0 0-.205-.514.683.683 0 0 0-.487-.206.73.73 0 0 0-.514.206h-.047ZM6.315 2.806a.645.645 0 0 1-.487-.205.645.645 0 0 1-.215-.487.692.692 0 0 1 .206-.514.683.683 0 0 1 .486-.206h21.049a.702.702 0 0 1 .701.72.645.645 0 0 1-.206.487.664.664 0 0 1-.495.205H6.314Zm0 7.017a.702.702 0 0 1-.702-.693.692.692 0 0 1 .206-.514c.132-.13.31-.201.496-.197h21.048a.702.702 0 0 1 .702.72.645.645 0 0 1-.206.487.664.664 0 0 1-.496.206l-21.048-.01Zm0 7.016a.702.702 0 0 1-.702-.693.692.692 0 0 1 .206-.514.683.683 0 0 1 .486-.206h21.049a.702.702 0 0 1 .701.72.645.645 0 0 1-.206.487.664.664 0 0 1-.495.206H6.314Z"></path></svg>