<svg width="24" height="24" aria-hidden="true" role="img" viewBox="0 0 24 24" fill="none" xmlns="http://www.w3.org/2000/svg"><circle  fill="#fff" cx="12" cy="12" r="12"></circle><path  d="M17.946 11.541a.72.72 0 0 0-.151-.237l-5.092-5.092a.718.718 0 0 0-.788-.157.718.718 0 0 0-.392.391.732.732 0 0 0 0 .554c.037.088.09.167.157.235l3.868 3.86H6.72a.72.72 0 0 0 0 1.44h8.828l-3.868 3.861a.733.733 0 0 0-.158.234.732.732 0 0 0 0 .554.733.733 0 0 0 .393.39.71.71 0 0 0 .276.053.711.711 0 0 0 .512-.209l5.092-5.092a.72.72 0 0 0 .151-.237.722.722 0 0 0 0-.548Z" fill="#000"></path></svg>